<svg width="1633" height="400" viewBox="0 0 1633 400" fill="none" xmlns="http://www.w3.org/2000/svg">
<path d="M294.399 0H105.52C47.4774 0 0 47.4871 0 105.541V294.459C0 352.513 47.4774 400 105.52 400H294.399C352.441 400 399.918 352.513 399.918 294.459V105.541C399.918 47.4871 352.441 0 294.399 0Z" fill="#FDFA3D"/>
<path d="M199.959 258.428C167.786 258.428 141.606 232.306 141.606 200.063C141.606 167.82 167.723 141.698 199.959 141.698V83.3333C135.55 83.3333 83.3164 135.515 83.3164 200C83.3164 264.485 135.487 316.667 199.959 316.667C264.431 316.667 316.602 264.485 316.602 200H258.249C258.249 232.18 232.195 258.365 199.896 258.365L199.959 258.428Z" fill="#0C0D0D"/>
<path d="M1613.09 286.192C1624.06 286.192 1633 277.245 1633 266.339C1633 255.433 1624.06 246.486 1613.09 246.486C1602.12 246.486 1593.24 255.433 1593.24 266.339C1593.24 277.31 1602.12 286.192 1613.09 286.192ZM1598.4 266.404C1598.4 258.241 1604.92 251.71 1613.09 251.71C1621.25 251.71 1627.78 258.306 1627.78 266.404C1627.78 274.502 1621.18 281.098 1613.09 281.098C1604.92 281.098 1598.4 274.436 1598.4 266.404Z" fill="white"/>
<path d="M1620.99 275.226H1616.42L1612.89 269.153H1610.87V275.226H1606.62V256.745H1614C1615.76 256.745 1617.26 257.333 1618.51 258.574C1619.75 259.815 1620.33 261.317 1620.33 263.08C1620.33 264.19 1620.01 265.235 1619.42 266.149C1618.83 267.129 1617.98 267.847 1616.94 268.37L1620.92 275.226H1620.99ZM1614.07 260.663H1610.93V265.431H1614.07C1614.59 265.431 1615.11 265.169 1615.57 264.777C1616.02 264.386 1616.15 263.733 1616.15 263.145C1616.15 262.492 1615.96 261.904 1615.57 261.512C1615.18 260.99 1614.72 260.794 1614.07 260.794V260.663Z" fill="white"/>
<path d="M962.524 276.402C974.799 267.455 980.871 255.178 980.871 239.439C981.067 231.146 979.499 223.897 976.104 217.693C972.774 211.424 967.943 206.461 961.544 202.673C955.276 198.885 949.204 195.946 943.589 193.987C937.974 192.028 931.184 190.199 923.61 188.436C913.555 185.628 905.916 182.559 900.758 179.424C895.535 176.224 892.923 172.175 892.923 167.147C892.923 161.661 895.143 157.416 899.583 154.412C904.023 151.408 909.768 149.841 916.755 149.841C931.772 149.841 942.087 156.045 947.507 168.453L977.279 151.8C971.599 141.09 963.503 132.731 952.86 126.788C942.349 120.78 930.27 117.776 916.755 117.776C899.779 117.776 885.48 122.413 873.924 131.49C862.563 140.698 856.948 152.714 856.948 167.865C856.752 175.963 858.319 183.016 861.714 189.089C865.044 195.163 869.941 200.126 876.405 203.783C882.868 207.505 888.81 210.379 894.098 212.338C899.452 214.297 906.047 216.256 913.882 218.28C934.644 223.244 944.895 230.297 944.895 239.178C944.895 251.456 935.624 257.529 917.146 257.529C898.669 257.529 886.264 249.692 880.844 234.019L850.418 251.717C855.642 263.733 863.999 273.072 875.621 279.798C887.177 286.59 901.019 289.92 917.146 289.92C935.167 289.79 950.314 285.349 962.524 276.402Z" fill="white"/>
<path d="M1048.58 197.906C1048.58 182.494 1052.23 170.739 1059.68 162.706C1067.06 154.739 1077.24 150.756 1090.1 150.756C1101.46 150.756 1110.34 154.021 1116.94 160.552C1123.47 167.147 1126.73 176.486 1126.73 188.698V285.48H1162.05V185.106C1162.05 164.339 1156.31 148.013 1144.88 135.866C1133.46 123.785 1118.24 117.712 1099.31 117.712C1076.39 117.712 1059.55 126.136 1048.64 142.919V56.5857H1013.32V285.545H1048.64V197.906H1048.58Z" fill="white"/>
<path d="M1282.91 289.793C1314.77 289.793 1338.67 277.907 1354.53 254.201L1325.41 237.222C1315.81 250.74 1301.78 257.532 1283.3 257.532C1269.52 257.532 1258.03 254.136 1248.83 247.41C1239.55 240.618 1233.61 231.149 1231 218.937H1361.06C1361.98 213.451 1362.43 208.619 1362.43 204.243C1362.43 180.211 1354.66 159.901 1339.19 143.052C1323.71 126.269 1304.06 117.844 1280.36 117.844C1254.83 117.844 1234.13 126.138 1218.2 142.726C1202.08 159.313 1194.05 179.689 1194.05 203.851C1194.05 228.014 1202.21 249.304 1218.53 265.695C1234.98 281.63 1256.46 289.727 1282.84 289.727L1282.91 289.793ZM1247.26 160.62C1256.01 153.501 1266.85 149.844 1279.97 149.844C1291.98 149.844 1302.17 153.37 1310.53 160.293C1318.95 167.346 1324.3 177.207 1326.72 190.072H1230.61C1233.03 177.599 1238.57 167.803 1247.26 160.62Z" fill="white"/>
<path d="M596.631 228.793C587.882 244.27 571.429 254.85 552.429 254.85C524.289 254.85 501.437 231.993 501.437 203.846C501.437 175.7 524.289 152.843 552.429 152.843C571.429 152.843 587.752 163.291 596.501 178.638L626.47 161.202C611.648 135.537 584.226 118.035 552.364 118.035C504.962 118.035 466.571 156.5 466.571 203.846C466.571 251.192 505.028 289.657 552.364 289.657C584.422 289.657 611.909 271.894 626.731 245.968L596.631 228.793Z" fill="white"/>
<path d="M782.383 122.086V141.09C767.693 126.788 748.04 117.776 726.298 117.776C726.037 117.776 725.776 117.776 725.58 117.776C725.384 117.776 725.057 117.776 724.862 117.776C680.137 117.776 643.835 156.241 643.835 203.718C643.835 251.194 680.137 289.659 724.862 289.659C725.123 289.659 725.384 289.659 725.58 289.659C725.776 289.659 726.102 289.659 726.298 289.659C748.04 289.659 767.693 280.712 782.383 266.345V285.48H817.706V122.021H782.383V122.086ZM782.383 203.718C782.383 232.256 759.27 255.374 730.738 255.374C702.206 255.374 679.092 232.256 679.092 203.718C679.092 175.179 702.206 152.061 730.738 152.061C759.205 152.061 782.383 175.179 782.383 203.718Z" fill="white"/>
<path d="M1525.27 122.086V141.09C1510.58 126.788 1490.93 117.776 1469.19 117.776C1468.92 117.776 1468.66 117.776 1468.47 117.776C1468.27 117.776 1467.95 117.776 1467.75 117.776C1423.02 117.776 1386.72 156.241 1386.72 203.718C1386.72 251.194 1423.02 289.659 1467.75 289.659C1468.01 289.659 1468.27 289.659 1468.47 289.659C1468.66 289.659 1468.99 289.659 1469.19 289.659C1490.93 289.659 1510.58 280.712 1525.27 266.345V285.48H1560.59V122.021H1525.27V122.086ZM1525.21 203.718C1525.21 232.256 1502.09 255.374 1473.56 255.374C1445.03 255.374 1421.92 232.256 1421.92 203.718C1421.92 175.179 1445.03 152.061 1473.56 152.061C1502.09 152.061 1525.21 175.179 1525.21 203.718Z" fill="white"/>
</svg>
